<svg width="18" height="18" viewBox="0 0 18 18" fill="none" xmlns="http://www.w3.org/2000/svg">
<path d="M1.29175 1.70825L3.02508 2.00825L3.82758 11.5691C3.89175 12.3499 4.54425 12.9491 5.32758 12.9466H14.4184C15.1659 12.9483 15.8001 12.3983 15.9059 11.6583L16.6967 6.19325C16.7851 5.58242 16.3609 5.01575 15.7509 4.92742C15.6976 4.91992 3.30341 4.91575 3.30341 4.91575" stroke="#333333" stroke-width="1.5" stroke-linecap="round" stroke-linejoin="round"/>
<path d="M10.7709 7.99565H13.0818" stroke="#333333" stroke-width="1.5" stroke-linecap="round" stroke-linejoin="round"/>
<path fill-rule="evenodd" clip-rule="evenodd" d="M4.962 15.8354C5.21283 15.8354 5.41533 16.0388 5.41533 16.2888C5.41533 16.5396 5.21283 16.743 4.962 16.743C4.71117 16.743 4.50867 16.5396 4.50867 16.2888C4.50867 16.0388 4.71117 15.8354 4.962 15.8354Z" fill="#333333" stroke="#333333" stroke-width="1.5" stroke-linecap="round" stroke-linejoin="round"/>
<path fill-rule="evenodd" clip-rule="evenodd" d="M14.3622 15.8354C14.6131 15.8354 14.8164 16.0388 14.8164 16.2888C14.8164 16.5396 14.6131 16.743 14.3622 16.743C14.1114 16.743 13.9089 16.5396 13.9089 16.2888C13.9089 16.0388 14.1114 15.8354 14.3622 15.8354Z" fill="#333333" stroke="#333333" stroke-width="1.5" stroke-linecap="round" stroke-linejoin="round"/>
</svg>
