<svg width="20" height="20" id="icon-9" viewBox="0 0 20 15" fill="none" xmlns="http://www.w3.org/2000/svg">
<path d="M8.42369 3.39633C8.12491 3.31485 7.62242 3.01607 7.40512 2.89384C6.68533 2.51357 5.84331 2.43209 5.01487 2.66296C3.6432 3.02965 2.40733 4.14329 1.63322 5.74584C0.261547 8.51635 0.696137 11.6943 2.62463 12.9981C3.15429 13.3512 3.76543 13.5277 4.40373 13.5277C4.70251 13.5277 4.98771 13.487 5.28649 13.4055C6.60384 13.0524 7.81255 12.0066 8.60024 10.5127C9.52375 10.1325 10.5831 10.1189 11.5201 10.472C12.3078 11.9387 13.4758 12.9573 14.766 13.2968C15.7031 13.5277 16.6266 13.3919 17.3871 12.8758C19.2884 11.5856 19.7366 8.46202 18.3921 5.75942C17.6044 4.19761 16.3957 3.08397 15.0512 2.73087C14.2499 2.52715 13.4622 2.58148 12.756 2.921C12.5116 3.04323 12.0226 3.45066 10.1621 3.45066V1.33203" stroke="" stroke-miterlimit="10" stroke-linecap="round" stroke-linejoin="round"/>
<path d="M12.7564 6.6021C12.6205 6.87372 12.5391 7.1725 12.5391 7.49844C12.5391 8.58492 13.4218 9.48126 14.4947 9.48126C15.5676 9.48126 16.4504 8.58492 16.4504 7.49844C16.4504 6.41197 15.5676 5.51562 14.4947 5.51562" stroke="" stroke-miterlimit="10" stroke-linecap="round" stroke-linejoin="round"/>
<path d="M5.28711 5.8418V9.35926" stroke="" stroke-miterlimit="10" stroke-linecap="round" stroke-linejoin="round"/>
<path d="M3.52148 7.60742H7.05253" stroke="" stroke-miterlimit="10" stroke-linecap="round" stroke-linejoin="round"/>
</svg>
