<svg xmlns="http://www.w3.org/2000/svg" id="icon-3" width="20" height="20" viewBox="0 0 20 18" fill="none">
<path d="M12.4404 2.67969L6.89453 8.23945" stroke="" stroke-miterlimit="10" stroke-linecap="round"/>
<path d="M13.1066 4.19336L10.8827 6.41727" stroke="" stroke-miterlimit="10" stroke-linecap="round"/>
<path d="M8.57547 4.19336L6.35156 6.41727" stroke="" stroke-miterlimit="10" stroke-linecap="round"/>
<path d="M17.4994 10.2864V1.73822C17.4994 1.15445 17.0268 0.667969 16.4291 0.667969H3.55827C2.9745 0.667969 2.48802 1.14055 2.48802 1.73822V10.2864L0.833984 15.5403H19.1673L17.4994 10.2864Z" stroke="" stroke-miterlimit="10" stroke-linecap="round" stroke-linejoin="round"/>
<path d="M2.48828 10.2842H16.9576" stroke="" stroke-miterlimit="10" stroke-linecap="round"/>
<path d="M11.4119 12.2324H8.13164L7.96484 13.8726H11.5787L11.4119 12.2324Z" stroke="" stroke-miterlimit="10" stroke-linecap="round" stroke-linejoin="round"/>
<path d="M17.4994 17.206H2.50191C1.58455 17.206 0.833984 16.4554 0.833984 15.5381H19.1673C19.1673 16.4554 18.4168 17.206 17.4994 17.206Z" stroke="" stroke-miterlimit="10" stroke-linecap="round" stroke-linejoin="round"/>
</svg>