<svg width="20" height="12" viewBox="0 0 20 12" fill="none" xmlns="http://www.w3.org/2000/svg">
<path d="M5.94802 5.89836C6.36615 6.39154 6.62346 7.04553 6.62346 7.75314C6.62346 9.3506 5.32619 10.6479 3.72872 10.6479C2.13126 10.6479 0.833984 9.3506 0.833984 7.75314C0.833984 6.15567 2.13126 4.8584 3.72872 4.8584" stroke="#7A7A7A" stroke-miterlimit="10" stroke-linecap="round" stroke-linejoin="round"/>
<path d="M16.2717 4.8584C17.8692 4.8584 19.1664 6.15567 19.1664 7.75314C19.1664 9.3506 17.8692 10.6479 16.2717 10.6479C14.6742 10.6479 13.377 9.3506 13.377 7.75314C13.377 7.25996 13.4949 6.79894 13.72 6.39154" stroke="#7A7A7A" stroke-miterlimit="10" stroke-linecap="round" stroke-linejoin="round"/>
<path d="M3.72852 7.75439L6.62325 1H7.58816" stroke="#7A7A7A" stroke-miterlimit="10" stroke-linecap="round" stroke-linejoin="round"/>
<path d="M9.51715 7.75327H16.2715L13.3768 2.92871H5.79688L9.51715 7.75327Z" stroke="#7A7A7A" stroke-miterlimit="10" stroke-linecap="round" stroke-linejoin="round"/>
<path d="M13.3772 2.92871L10.5039 6.52033" stroke="#7A7A7A" stroke-miterlimit="10" stroke-linecap="round" stroke-linejoin="round"/>
<path d="M12.4121 1.69531H14.3741" stroke="#7A7A7A" stroke-miterlimit="10" stroke-linecap="round" stroke-linejoin="round"/>
</svg>
