<svg width="20" height="20" id="icon-13" viewBox="0 0 20 19" fill="none" xmlns="http://www.w3.org/2000/svg">
<path d="M12.4365 11.2503C12.3211 13.8379 10.1125 15.8487 7.5249 15.7334C4.93725 15.618 2.92646 13.4094 3.04184 10.8218C3.15721 8.23412 5.36578 6.22334 7.95343 6.33871" stroke="" stroke-miterlimit="10" stroke-linecap="round" stroke-linejoin="round"/>
<path d="M7.7234 17.9097C11.5283 17.9097 14.6128 14.8252 14.6128 11.0203C14.6128 7.21535 11.5283 4.13086 7.7234 4.13086C3.91848 4.13086 0.833984 7.21535 0.833984 11.0203C0.833984 14.8252 3.91848 17.9097 7.7234 17.9097Z" stroke="" stroke-miterlimit="10" stroke-linecap="round" stroke-linejoin="round"/>
<path d="M12.2715 5.76087L16.771 1.32725C17.4797 0.684457 18.2214 0.35482 18.8642 1.06354C19.507 1.77226 19.029 2.38209 18.3203 3.02488L13.3098 6.9146" stroke="" stroke-miterlimit="10" stroke-linecap="round" stroke-linejoin="round"/>
<path d="M7.7238 12.2064C8.37919 12.2064 8.9105 11.6751 8.9105 11.0197C8.9105 10.3643 8.37919 9.83301 7.7238 9.83301C7.06841 9.83301 6.53711 10.3643 6.53711 11.0197C6.53711 11.6751 7.06841 12.2064 7.7238 12.2064Z" stroke="" stroke-miterlimit="10" stroke-linecap="round" stroke-linejoin="round"/>
</svg>
